<svg width="160" height="40" viewBox="0 0 160 40" xmlns="http://www.w3.org/2000/svg"><title>logo</title><g fill-rule="nonzero" fill="none"><path d="M42.714 12.163c.68-.003 1.36.096 2.012.292.628.186 1.21.497 1.714.916.512.434.924.973 1.208 1.58.314.72.462 1.503.433 2.288.013.548-.06 1.095-.218 1.62-.117.388-.293.755-.52 1.09-.164.244-.363.464-.59.65-.138.113-.283.215-.436.306.178.07.352.148.52.24.343.183.65.426.91.716.83.923 1.268 2.134 1.22 3.375.01.778-.138 1.55-.436 2.27-.272.658-.68 1.25-1.194 1.742-.52.486-1.13.866-1.798 1.117-.71.268-1.462.404-2.22.4h-6.095v-18.6h5.49zm1.774 7.078c.447-.344.67-.915.67-1.713 0-.85-.24-1.453-.724-1.808-.53-.37-1.166-.555-1.81-.53h-2.49v4.57h2.49c.657.038 1.31-.143 1.854-.516l.01-.003zm.738 7.917c.532-.38.798-1.013.798-1.9 0-.884-.266-1.517-.798-1.897-.593-.4-1.298-.6-2.013-.57H40.12v4.94h3.093c.71.03 1.412-.17 2.003-.566l.01-.007zM94.625 12.163V30.76h-2.898V12.162M107.958 24.816c-.165-.28-.382-.523-.64-.718-.303-.23-.632-.42-.98-.57-.376-.173-.787-.348-1.234-.527-.613-.247-1.233-.53-1.86-.848-.614-.31-1.187-.697-1.703-1.154-.504-.448-.925-.983-1.243-1.58-.337-.665-.503-1.404-.483-2.15-.002-.7.13-1.394.386-2.046.25-.642.623-1.23 1.1-1.727.492-.507 1.08-.913 1.727-1.194.717-.31 1.49-.463 2.27-.452.623-.006 1.24.083 1.836.265.54.167 1.06.4 1.546.69.445.267.86.583 1.234.943.334.323.644.67.93 1.037l-2.014 2.177c-.198-.273-.416-.53-.65-.772-.247-.255-.523-.48-.822-.67-.304-.195-.628-.356-.966-.48-.35-.126-.717-.188-1.087-.185-.666-.02-1.317.206-1.825.638-.484.408-.756 1.015-.738 1.648-.01.387.1.768.315 1.09.223.314.505.58.832.785.37.234.762.434 1.17.597l1.342.556c.628.267 1.227.554 1.798.863.552.294 1.06.666 1.51 1.102.44.433.793.946 1.04 1.513.275.662.41 1.375.39 2.093.02.808-.14 1.61-.468 2.348-.293.646-.726 1.22-1.268 1.677-.54.452-1.164.794-1.835 1.006-.712.225-1.453.338-2.198.335-.743.01-1.48-.105-2.187-.336-.628-.215-1.224-.514-1.77-.89-.51-.34-.97-.752-1.366-1.22-.374-.433-.71-.895-1.008-1.382l2.174-2.013c.202.353.432.69.688 1.006.267.33.57.63.905.89.344.27.726.49 1.133.65.447.174.923.26 1.402.252.34 0 .677-.04 1.006-.12.323-.077.63-.207.907-.386.595-.38.945-1.048.92-1.754.015-.343-.06-.683-.22-.986zM118.655 12.163V30.76h-2.898V12.162M156.995 24.966V12.163h2.898V30.76h-2.61l-8.453-12.777V30.76h-2.898V12.162h2.61M84.223 12.163l-3.888 11.18-3.88-11.18h-3.197l7.077 20.377 7.08-20.377M61.55 14.92c3.614 0 6.542 2.93 6.542 6.54 0 3.614-2.928 6.542-6.54 6.542-3.613 0-6.542-2.928-6.542-6.54.004-3.612 2.93-6.538 6.54-6.542zm0-3.02c-5.278 0-9.558 4.282-9.558 9.56 0 5.28 4.28 9.56 9.56 9.56s9.56-4.28 9.56-9.56c0-5.278-4.28-9.56-9.56-9.56zM132.444 14.92c3.612.002 6.54 2.93 6.538 6.543 0 3.612-2.93 6.54-6.542 6.54-3.612-.002-6.54-2.93-6.54-6.542.004-3.61 2.93-6.536 6.54-6.54h.004zm-.003-3.02c-5.28 0-9.56 4.282-9.56 9.56 0 5.28 4.28 9.56 9.56 9.56s9.56-4.28 9.56-9.56c0-5.278-4.28-9.56-9.56-9.56z" fill="#171717"/><path d="M13.753 10.392c6.113 0 11.07 4.956 11.07 11.07 0 6.113-4.957 11.068-11.07 11.068-6.114 0-11.07-4.955-11.07-11.07 0-6.112 4.956-11.068 11.07-11.068zm0-2.683C6.157 7.71 0 13.865 0 21.46c0 7.597 6.157 13.754 13.753 13.754 7.595 0 13.752-6.157 13.752-13.753 0-7.594-6.157-13.75-13.752-13.75z" fill="#0D5BAD"/><path d="M13.753 32.406L4 3h20L13.753 32.406zM28 0H0l13.753 40.58L28 0z" fill="#0D5BAD"/></g></svg>